<?xml version="1.0" standalone="no"?>
<!DOCTYPE svg PUBLIC "-//W3C//DTD SVG 20010904//EN"
 "http://www.w3.org/TR/2001/REC-SVG-20010904/DTD/svg10.dtd">
<svg version="1.0" xmlns="http://www.w3.org/2000/svg"
 width="225.000000pt" height="225.000000pt" viewBox="0 0 225.000000 225.000000"
 preserveAspectRatio="xMidYMid meet">

<g transform="translate(0.000000,225.000000) scale(0.100000,-0.100000)"
fill="#000000" stroke="none">
<path d="M1018 1964 c-154 -37 -279 -146 -339 -295 -26 -67 -36 -199 -20 -266
10 -38 432 -1057 460 -1111 4 -7 64 122 139 300 72 172 172 410 222 528 108
256 120 294 120 379 0 127 -42 230 -131 326 -119 127 -288 179 -451 139z m226
-253 c147 -78 167 -279 40 -391 -50 -44 -93 -60 -157 -60 -65 0 -113 18 -162
62 -122 106 -105 305 33 385 82 48 161 50 246 4z"/>
</g>
</svg>
