<?xml version="1.0" standalone="no"?>
<!DOCTYPE svg PUBLIC "-//W3C//DTD SVG 20010904//EN"
 "http://www.w3.org/TR/2001/REC-SVG-20010904/DTD/svg10.dtd">
<svg version="1.0" xmlns="http://www.w3.org/2000/svg"
 width="1200.000000pt" height="1200.000000pt" viewBox="0 0 1200.000000 1200.000000"
 preserveAspectRatio="xMidYMid meet">

<g transform="translate(0.000000,1200.000000) scale(0.100000,-0.100000)"
fill="#000000" stroke="none">
<path d="M4595 11393 c-1403 -72 -2670 -831 -3393 -2032 -635 -1056 -773
-2344 -377 -3511 143 -420 347 -808 612 -1162 149 -199 249 -311 439 -498
1178 -1152 2927 -1503 4469 -897 174 69 469 216 634 316 l135 82 1543 -1543
1543 -1543 597 598 598 597 -1543 1543 -1543 1543 82 135 c276 455 469 979
553 1499 36 224 46 328 53 575 30 1131 -396 2219 -1187 3029 -234 239 -448
417 -711 589 -738 483 -1629 725 -2504 680z m605 -1522 c593 -91 1114 -360
1535 -792 408 -419 654 -920 742 -1514 27 -182 24 -572 -5 -760 -89 -572 -339
-1076 -737 -1484 -431 -442 -950 -706 -1570 -798 -182 -27 -572 -24 -760 5
-603 94 -1117 359 -1540 793 -409 420 -654 921 -742 1514 -22 151 -25 552 -5
695 71 500 236 906 526 1295 117 157 373 413 528 529 411 306 851 478 1368
535 141 16 505 6 660 -18z"/>
</g>
</svg>
